<svg width="20" height="20" viewBox="0 0 20 20" fill="none" xmlns="http://www.w3.org/2000/svg">
<path d="M3.33325 15.8127V14.146H4.99992V8.31266C4.99992 7.15988 5.34714 6.13558 6.04159 5.23975C6.73603 4.34391 7.63881 3.75711 8.74992 3.47933V2.896C8.74992 2.54877 8.87145 2.25363 9.1145 2.01058C9.35756 1.76752 9.6527 1.646 9.99992 1.646C10.3471 1.646 10.6423 1.76752 10.8853 2.01058C11.1284 2.25363 11.2499 2.54877 11.2499 2.896V3.47933C12.361 3.75711 13.2638 4.34391 13.9583 5.23975C14.6527 6.13558 14.9999 7.15988 14.9999 8.31266V14.146H16.6666V15.8127H3.33325ZM9.99992 18.3127C9.54158 18.3127 9.14922 18.1495 8.82283 17.8231C8.49645 17.4967 8.33325 17.1043 8.33325 16.646H11.6666C11.6666 17.1043 11.5034 17.4967 11.177 17.8231C10.8506 18.1495 10.4583 18.3127 9.99992 18.3127ZM6.66658 14.146H13.3333V8.31266C13.3333 7.396 13.0069 6.61127 12.3541 5.9585C11.7013 5.30572 10.9166 4.97933 9.99992 4.97933C9.08325 4.97933 8.29853 5.30572 7.64575 5.9585C6.99297 6.61127 6.66658 7.396 6.66658 8.31266V14.146Z" fill="#D9E4EF"/>
</svg>
